<mxfile host="app.diagrams.net" modified="2021-01-13T10:24:05.429Z" agent="5.0 (Windows NT 10.0; Win64; x64) AppleWebKit/537.36 (KHTML, like Gecko) Chrome/71.0.3578.98 Safari/537.36" etag="9wEEwa_c1YscjStz8JpU" version="14.1.9" type="github">
  <diagram id="fWQ41ixsn_-MHg3DVFzX" name="Page-1">
    <mxGraphModel dx="782" dy="389" grid="1" gridSize="10" guides="1" tooltips="1" connect="1" arrows="1" fold="1" page="1" pageScale="1" pageWidth="827" pageHeight="1169" math="0" shadow="0">
      <root>
        <mxCell id="0" />
        <mxCell id="1" parent="0" />
        <mxCell id="0eDmDIjOWBHYxuThT7Zu-2" value="" style="whiteSpace=wrap;html=1;fillColor=#A2C4EB;" parent="1" vertex="1">
          <mxGeometry x="90" y="70" width="630" height="390" as="geometry" />
        </mxCell>
        <mxCell id="8kM-RfW2gDSPi0M0tcjr-1" value="区块链应用平台&lt;br&gt;" style="text;html=1;resizable=0;autosize=1;align=center;verticalAlign=middle;points=[];fillColor=none;strokeColor=none;rounded=0;fontColor=#2A73BD;" parent="1" vertex="1">
          <mxGeometry x="90" y="80" width="100" height="20" as="geometry" />
        </mxCell>
        <mxCell id="8kM-RfW2gDSPi0M0tcjr-2" value="私募应用" style="rounded=1;whiteSpace=wrap;html=1;fillColor=#1ba1e2;fontColor=#ffffff;strokeColor=#006EAF;" parent="1" vertex="1">
          <mxGeometry x="190" y="120" width="120" height="60" as="geometry" />
        </mxCell>
        <mxCell id="8kM-RfW2gDSPi0M0tcjr-3" value="中债登应用" style="rounded=1;whiteSpace=wrap;html=1;fillColor=#1ba1e2;fontColor=#ffffff;strokeColor=#006EAF;" parent="1" vertex="1">
          <mxGeometry x="480" y="120" width="120" height="60" as="geometry" />
        </mxCell>
        <mxCell id="8kM-RfW2gDSPi0M0tcjr-5" value="" style="rounded=1;arcSize=10;dashed=1;fillColor=none;gradientColor=none;dashPattern=8 4;strokeWidth=2;fontColor=#2A73BD;strokeColor=#009900;" parent="1" vertex="1">
          <mxGeometry x="155" y="230" width="190" height="90" as="geometry" />
        </mxCell>
        <mxCell id="qzB3rU1nFHjKvM0NbiP9-1" value="fabric网络" style="text;html=1;resizable=0;autosize=1;align=center;verticalAlign=middle;points=[];fillColor=none;strokeColor=none;rounded=0;" vertex="1" parent="1">
          <mxGeometry x="215" y="230" width="70" height="20" as="geometry" />
        </mxCell>
        <mxCell id="qzB3rU1nFHjKvM0NbiP9-2" value="" style="strokeWidth=2;html=1;shape=mxgraph.flowchart.start_2;whiteSpace=wrap;fillColor=#60a917;fontColor=#ffffff;strokeColor=#2D7600;" vertex="1" parent="1">
          <mxGeometry x="195" y="265" width="20" height="20" as="geometry" />
        </mxCell>
        <mxCell id="qzB3rU1nFHjKvM0NbiP9-3" value="" style="strokeWidth=2;html=1;shape=mxgraph.flowchart.start_2;whiteSpace=wrap;fillColor=#60a917;fontColor=#ffffff;strokeColor=#2D7600;" vertex="1" parent="1">
          <mxGeometry x="240" y="265" width="20" height="20" as="geometry" />
        </mxCell>
        <mxCell id="qzB3rU1nFHjKvM0NbiP9-4" value="" style="strokeWidth=2;html=1;shape=mxgraph.flowchart.start_2;whiteSpace=wrap;fillColor=#60a917;fontColor=#ffffff;strokeColor=#2D7600;" vertex="1" parent="1">
          <mxGeometry x="285" y="265" width="20" height="20" as="geometry" />
        </mxCell>
        <mxCell id="qzB3rU1nFHjKvM0NbiP9-5" value="order" style="text;html=1;resizable=0;autosize=1;align=center;verticalAlign=middle;points=[];fillColor=none;strokeColor=none;rounded=0;fontColor=#000000;" vertex="1" parent="1">
          <mxGeometry x="185" y="290" width="40" height="20" as="geometry" />
        </mxCell>
        <mxCell id="qzB3rU1nFHjKvM0NbiP9-6" value="order" style="text;html=1;resizable=0;autosize=1;align=center;verticalAlign=middle;points=[];fillColor=none;strokeColor=none;rounded=0;fontColor=#000000;" vertex="1" parent="1">
          <mxGeometry x="228" y="290" width="40" height="20" as="geometry" />
        </mxCell>
        <mxCell id="qzB3rU1nFHjKvM0NbiP9-7" value="peer" style="text;html=1;resizable=0;autosize=1;align=center;verticalAlign=middle;points=[];fillColor=none;strokeColor=none;rounded=0;fontColor=#000000;" vertex="1" parent="1">
          <mxGeometry x="273" y="290" width="40" height="20" as="geometry" />
        </mxCell>
        <mxCell id="qzB3rU1nFHjKvM0NbiP9-8" value="" style="rounded=1;arcSize=10;dashed=1;fillColor=none;gradientColor=none;dashPattern=8 4;strokeWidth=2;fontColor=#2A73BD;strokeColor=#009900;" vertex="1" parent="1">
          <mxGeometry x="445" y="230" width="190" height="90" as="geometry" />
        </mxCell>
        <mxCell id="qzB3rU1nFHjKvM0NbiP9-9" value="fabric网络" style="text;html=1;resizable=0;autosize=1;align=center;verticalAlign=middle;points=[];fillColor=none;strokeColor=none;rounded=0;" vertex="1" parent="1">
          <mxGeometry x="505" y="230" width="70" height="20" as="geometry" />
        </mxCell>
        <mxCell id="qzB3rU1nFHjKvM0NbiP9-10" value="" style="strokeWidth=2;html=1;shape=mxgraph.flowchart.start_2;whiteSpace=wrap;fillColor=#60a917;fontColor=#ffffff;strokeColor=#2D7600;" vertex="1" parent="1">
          <mxGeometry x="485" y="265" width="20" height="20" as="geometry" />
        </mxCell>
        <mxCell id="qzB3rU1nFHjKvM0NbiP9-11" value="" style="strokeWidth=2;html=1;shape=mxgraph.flowchart.start_2;whiteSpace=wrap;fillColor=#60a917;fontColor=#ffffff;strokeColor=#2D7600;" vertex="1" parent="1">
          <mxGeometry x="530" y="265" width="20" height="20" as="geometry" />
        </mxCell>
        <mxCell id="qzB3rU1nFHjKvM0NbiP9-12" value="" style="strokeWidth=2;html=1;shape=mxgraph.flowchart.start_2;whiteSpace=wrap;fillColor=#60a917;fontColor=#ffffff;strokeColor=#2D7600;" vertex="1" parent="1">
          <mxGeometry x="575" y="265" width="20" height="20" as="geometry" />
        </mxCell>
        <mxCell id="qzB3rU1nFHjKvM0NbiP9-13" value="order" style="text;html=1;resizable=0;autosize=1;align=center;verticalAlign=middle;points=[];fillColor=none;strokeColor=none;rounded=0;fontColor=#000000;" vertex="1" parent="1">
          <mxGeometry x="475" y="290" width="40" height="20" as="geometry" />
        </mxCell>
        <mxCell id="qzB3rU1nFHjKvM0NbiP9-14" value="order" style="text;html=1;resizable=0;autosize=1;align=center;verticalAlign=middle;points=[];fillColor=none;strokeColor=none;rounded=0;fontColor=#000000;" vertex="1" parent="1">
          <mxGeometry x="518" y="290" width="40" height="20" as="geometry" />
        </mxCell>
        <mxCell id="qzB3rU1nFHjKvM0NbiP9-15" value="peer" style="text;html=1;resizable=0;autosize=1;align=center;verticalAlign=middle;points=[];fillColor=none;strokeColor=none;rounded=0;fontColor=#000000;" vertex="1" parent="1">
          <mxGeometry x="563" y="290" width="40" height="20" as="geometry" />
        </mxCell>
      </root>
    </mxGraphModel>
  </diagram>
</mxfile>
